<?xml version="1.0" encoding="UTF-8"?>
<!-- Generator: visioncortex VTracer 0.6.5 -->
<svg viewBox="0 0 1254 1254" version="1.1" xmlns="http://www.w3.org/2000/svg" width="1254" height="1254" role="img" aria-label="ChatGPT Image 11 cze 2026, 17_11_53"><title>ChatGPT Image 11 cze 2026, 17_11_53</title>
<path d="M0 0 C1.88 -0 3.76 -0.01 5.69 -0.01 C11.94 -0.03 18.2 -0.03 24.45 -0.04 C28.95 -0.05 33.45 -0.06 37.95 -0.06 C51.4 -0.09 64.86 -0.1 78.32 -0.12 C82.12 -0.12 85.93 -0.12 89.73 -0.13 C113.37 -0.15 137.02 -0.17 160.66 -0.19 C166.12 -0.19 171.59 -0.19 177.05 -0.2 C178.4 -0.2 179.76 -0.2 181.16 -0.2 C203.19 -0.21 225.22 -0.24 247.25 -0.29 C269.89 -0.33 292.53 -0.35 315.17 -0.36 C327.87 -0.36 340.58 -0.37 353.28 -0.41 C364.08 -0.43 374.89 -0.44 385.7 -0.43 C391.21 -0.43 396.72 -0.43 402.23 -0.46 C408.21 -0.48 414.18 -0.47 420.16 -0.45 C421.9 -0.47 423.64 -0.48 425.44 -0.5 C434.4 -0.44 440.97 -0.04 448.64 5.15 C453.67 11.44 455.22 15.19 455.64 23.15 C454.7 29.34 452.79 33.46 448.64 38.15 C439.94 43.4 431.5 43.3 421.63 43.27 C420.96 43.27 420.96 43.27 417.6 43.27 C413.13 43.27 408.67 43.26 404.2 43.25 C401 43.25 397.79 43.25 394.59 43.25 C387.66 43.24 380.74 43.24 373.81 43.23 C362.72 43.22 351.64 43.21 340.56 43.2 C312.92 43.19 285.28 43.17 257.65 43.14 C91.41 43 91.41 43 27.46 43.44 C23.91 43.47 20.35 43.48 16.8 43.5 C-7.09 43.61 -30.66 44.06 -54.36 47.15 C-55.59 47.31 -56.81 47.47 -58.07 47.63 C-66.19 48.69 -74.28 49.86 -82.36 51.15 C-83.45 51.33 -84.54 51.5 -85.66 51.68 C-150.65 62.21 -231.84 86.84 -273.36 141.28 C-282.99 154.83 -288.69 169.34 -287.36 186.15 C-284.68 200.55 -278.88 213 -269.36 224.15 C-268.69 224.96 -268.69 224.96 -265.3 229.03 C-213.33 285.84 -112.59 303.65 -39.85 309.43 C-36.87 309.56 -36.87 309.56 -32.36 309.15 C-29.3 304.78 -29.3 304.78 -26.36 299.15 C-18.34 288.79 -7.26 282.99 5.26 279.65 C22.23 278.08 36.48 280.02 50.64 290.15 C63.25 301.13 67.45 312.21 70.64 328.15 C71.42 342.72 66.45 355.83 57.14 366.9 C45.96 378.57 31.83 383.57 15.98 384.21 C-0.73 384 -13.8 376.88 -25.36 365.15 C-28.22 361.19 -30.77 357.35 -32.95 352.98 C-36.46 348.87 -39.31 349.1 -44.61 348.61 C-46.49 348.43 -48.37 348.24 -50.3 348.05 C-52.3 347.88 -54.3 347.71 -56.36 347.53 C-60.45 347.13 -64.54 346.73 -68.63 346.32 C-69.63 346.23 -69.63 346.23 -74.69 345.74 C-82.21 344.96 -89.69 343.96 -97.18 342.84 C-98.34 342.67 -99.5 342.5 -100.69 342.32 C-103.25 341.94 -105.81 341.55 -108.36 341.15 C-98.9 355.62 -88.74 369.14 -77.36 382.15 C-75.41 384.47 -73.45 386.78 -71.49 389.09 C-66 395.5 -60.28 401.67 -54.49 407.81 C-52.13 410.34 -49.82 412.92 -47.55 415.53 C-45.02 418.4 -42.46 421.09 -39.74 423.78 C-36.38 427.14 -33.36 430.49 -30.36 434.15 C-17.8 446.98 -4.98 458.56 13.97 459.28 C14.58 459.28 14.58 459.28 17.67 459.29 C19.09 459.29 20.5 459.29 21.96 459.3 C23.52 459.3 25.07 459.3 26.67 459.29 C28.32 459.3 29.97 459.3 31.67 459.3 C37.23 459.31 42.78 459.31 48.34 459.32 C52.31 459.32 56.29 459.32 60.26 459.33 C71.07 459.34 81.88 459.35 92.7 459.35 C99.45 459.36 106.2 459.36 112.95 459.37 C131.64 459.38 150.33 459.39 169.03 459.39 C169.62 459.39 169.62 459.39 172.65 459.39 C173.25 459.39 173.25 459.39 176.28 459.39 C178.71 459.39 181.14 459.39 183.57 459.39 C184.78 459.39 185.98 459.39 187.23 459.39 C206.76 459.4 226.29 459.42 245.82 459.44 C265.87 459.46 285.93 459.48 305.98 459.48 C317.24 459.48 328.5 459.48 339.76 459.5 C350.35 459.52 360.93 459.52 371.52 459.51 C375.41 459.51 379.3 459.52 383.19 459.52 C388.49 459.54 393.79 459.53 399.1 459.52 C399.87 459.53 399.87 459.53 403.77 459.55 C418.68 459.48 428.89 455.55 440.64 446.15 C451.23 431.67 452.94 418.39 452.93 400.93 C452.93 399.22 452.94 397.51 452.95 395.75 C452.97 390.1 452.97 384.45 452.97 378.8 C452.98 374.86 452.98 370.93 452.99 366.99 C453 358.73 453.01 350.48 453.01 342.23 C453.01 331.68 453.03 321.13 453.07 310.57 C453.09 302.44 453.09 294.31 453.09 286.17 C453.1 282.28 453.1 278.39 453.12 274.5 C453.14 269.05 453.13 263.6 453.12 258.15 C453.13 256.56 453.14 254.97 453.16 253.33 C453.06 236.63 450.13 222.63 438.82 209.84 C428.18 200.47 415.76 196.04 401.72 196.02 C400.35 196.02 398.99 196.01 397.58 196.01 C396.84 196.01 396.84 196.01 393.07 196.01 C391.48 196.01 389.89 196.01 388.25 196 C382.91 196 377.57 195.99 372.23 195.99 C368.41 195.99 364.58 195.98 360.76 195.98 C349.28 195.96 337.8 195.96 326.32 195.95 C320.91 195.95 315.5 195.95 310.09 195.94 C292.1 195.93 274.12 195.92 256.13 195.92 C254.98 195.92 253.83 195.92 252.65 195.92 C251.49 195.92 250.34 195.92 249.15 195.92 C246.81 195.91 244.48 195.91 242.14 195.91 C240.98 195.91 239.82 195.91 238.63 195.91 C219.84 195.91 201.06 195.89 182.28 195.87 C162.99 195.84 143.69 195.83 124.4 195.83 C113.57 195.83 102.75 195.82 91.92 195.81 C81.73 195.79 71.55 195.79 61.36 195.8 C57.62 195.8 53.89 195.79 50.15 195.78 C45.04 195.77 39.94 195.78 34.84 195.79 C33.36 195.78 31.88 195.77 30.36 195.76 C12.96 195.85 -1.12 200.69 -14.36 212.15 C-16.73 214.79 -19.07 217.46 -21.36 220.15 C-23.18 222 -25.02 223.83 -26.86 225.65 C-31.25 229.99 -35.33 234.48 -39.36 239.15 C-41.32 241.26 -43.28 243.37 -45.24 245.47 C-49.66 250.24 -53.86 255.11 -57.93 260.19 C-61.99 265.14 -66.23 269.95 -70.45 274.77 C-72.81 277.51 -75.1 280.32 -77.36 283.15 C-83.2 284.61 -88.54 283.19 -94.36 282.15 C-95.66 281.92 -96.96 281.7 -98.29 281.46 C-128.93 275.87 -167.13 268.64 -193.36 251.15 C-182.24 228.91 -159.8 208.21 -140.36 193.15 C-138.68 191.72 -136.99 190.28 -135.3 188.84 C-117.81 174.56 -97.86 163.44 -77.36 154.15 C-76.29 153.63 -75.22 153.11 -74.11 152.57 C-45.03 138.49 -11.32 130.18 20.92 128.03 C22.17 127.95 23.41 127.87 24.69 127.78 C39.73 126.86 54.75 126.87 69.81 126.88 C73.02 126.87 76.23 126.87 79.45 126.86 C88.08 126.85 96.72 126.85 105.36 126.85 C112.6 126.85 119.84 126.85 127.09 126.84 C144.19 126.83 161.29 126.83 178.39 126.84 C195.96 126.84 213.54 126.83 231.11 126.81 C246.27 126.79 261.43 126.79 276.59 126.79 C285.61 126.79 294.63 126.79 303.66 126.78 C312.14 126.76 320.63 126.77 329.11 126.78 C332.21 126.78 335.3 126.78 338.39 126.77 C404.11 126.61 464.45 146.54 516.64 187.15 C517.74 187.97 518.84 188.79 519.98 189.63 C534.56 200.49 547.85 213.34 559.64 227.15 C560 227.57 560 227.57 561.84 229.69 C605.2 280.47 623.85 341.78 634.95 406.4 C635.29 408.36 635.62 410.32 635.97 412.34 C637.97 424.25 639.53 436.13 640.64 448.15 C641.3 448.15 641.96 448.15 642.64 448.15 C643.34 444.83 644 441.49 644.64 438.15 C645.81 433.65 647.12 429.18 648.45 424.72 C648.78 423.57 649.11 422.42 649.45 421.23 C655.21 401.72 664.62 384.61 682.32 373.72 C702.33 363.23 727.75 363.23 749.07 369.84 C763.11 375.68 773.42 384.67 780.64 398.15 C786.87 413.41 788.1 430.46 782.64 446.15 C774.63 463.05 762.08 473.66 744.64 480.15 C737.83 482.28 731.32 482.41 724.26 482.35 C723.1 482.35 721.93 482.34 720.73 482.34 C717.03 482.33 713.33 482.3 709.64 482.28 C707.12 482.27 704.6 482.26 702.08 482.25 C695.93 482.23 689.79 482.2 683.64 482.15 C683.64 482.81 683.64 483.47 683.64 484.15 C685.29 484.81 686.94 485.47 688.64 486.15 C704.2 494.76 715.69 506.88 720.84 524.2 C723.77 535.29 726.19 546.36 728.14 557.65 C728.43 559.37 728.73 561.09 729.03 562.85 C732.33 582.53 734.63 602.3 736.64 622.15 C736.82 623.94 737 625.72 737.19 627.56 C738.53 641.08 739.64 654.61 740.64 668.15 C740.79 670.2 740.94 672.24 741.1 674.34 C743.56 708.97 743.92 743.61 743.95 778.31 C743.95 781.72 743.95 785.13 743.96 788.54 C744.02 838.56 742.06 888.51 735.64 938.15 C735.48 939.32 735.33 940.49 735.18 941.7 C728.6 992.02 728.6 992.02 710.82 1007.47 C698.48 1015.39 686.2 1016.45 671.96 1016.43 C670.41 1016.43 668.85 1016.44 667.24 1016.44 C662.1 1016.46 656.95 1016.46 651.81 1016.45 C648.23 1016.46 644.64 1016.46 641.05 1016.47 C633.54 1016.48 626.03 1016.47 618.51 1016.47 C608.9 1016.46 599.29 1016.48 589.69 1016.5 C582.28 1016.52 574.87 1016.52 567.47 1016.52 C563.93 1016.52 560.38 1016.52 556.84 1016.53 C551.88 1016.54 546.92 1016.54 541.95 1016.53 C540.5 1016.53 539.05 1016.54 537.56 1016.55 C522.01 1016.47 511.03 1014.27 498.95 1004.03 C477.11 978.49 481.29 928.7 478.64 900.15 C283.61 900.15 88.58 900.15 -112.36 900.15 C-114.59 922.44 -114.59 922.44 -115.26 932.38 C-115.41 934.48 -115.56 936.59 -115.72 938.76 C-116.02 943.07 -116.32 947.38 -116.6 951.69 C-118.02 970.96 -120.2 991.71 -134.36 1006.15 C-143.55 1013.9 -154.44 1016.26 -166.17 1016.3 C-167.5 1016.31 -168.83 1016.32 -170.2 1016.32 C-170.92 1016.32 -170.92 1016.32 -174.58 1016.33 C-175.34 1016.33 -175.34 1016.33 -179.23 1016.35 C-184.3 1016.37 -189.38 1016.38 -194.45 1016.39 C-195.32 1016.39 -195.32 1016.39 -199.72 1016.4 C-208.92 1016.43 -218.12 1016.44 -227.32 1016.45 C-236.79 1016.46 -246.27 1016.49 -255.75 1016.53 C-263.06 1016.56 -270.37 1016.57 -277.68 1016.57 C-281.17 1016.58 -284.66 1016.59 -288.15 1016.61 C-293.05 1016.63 -297.96 1016.63 -302.86 1016.62 C-304.28 1016.64 -305.71 1016.65 -307.17 1016.66 C-320.84 1016.59 -334.45 1014.96 -345.36 1006.15 C-346.56 1005.27 -347.76 1004.38 -348.99 1003.47 C-363.11 989.61 -366.07 970.79 -369.36 952.15 C-369.6 950.87 -369.83 949.59 -370.07 948.27 C-379.13 896.67 -380.52 844.34 -380.55 792.09 C-380.55 790.32 -380.55 788.55 -380.56 786.72 C-380.55 712.49 -374.92 637.64 -360.1 564.8 C-359.33 560.97 -358.58 557.13 -357.83 553.29 C-352.74 527.43 -346.71 506.17 -325.36 489.15 C-317.07 484.15 -317.07 484.15 -314.36 484.15 C-314.36 483.49 -314.36 482.83 -314.36 482.15 C-315.9 482.17 -317.44 482.2 -319.02 482.22 C-324.78 482.29 -330.54 482.34 -336.29 482.37 C-338.78 482.39 -341.26 482.42 -343.74 482.46 C-347.33 482.5 -350.91 482.53 -354.5 482.54 C-355.59 482.57 -356.69 482.59 -357.81 482.61 C-375.2 482.61 -389.14 475.05 -401.36 463.15 C-413.17 448.4 -416.32 434.62 -415.36 416.15 C-412.33 399.32 -404.2 386.36 -390.36 376.15 C-377.08 368.45 -364.85 365.59 -349.61 365.72 C-348.29 365.72 -346.97 365.73 -345.61 365.74 C-323.25 366.12 -308.77 373.75 -293.18 389.34 C-284.27 400.58 -280.39 413.55 -276.23 427.1 C-274.69 432.11 -273.06 437.07 -271.36 442.03 C-269.36 448.15 -269.36 448.15 -269.36 451.15 C-268.7 451.15 -268.04 451.15 -267.36 451.15 C-267.24 449.41 -267.12 447.67 -267 445.87 C-266.48 439.68 -265.43 433.71 -264.18 427.62 C-263.96 426.55 -263.74 425.49 -263.52 424.39 C-262.81 420.96 -262.09 417.52 -261.36 414.09 C-261.12 412.91 -260.87 411.74 -260.62 410.52 C-253.34 375.79 -244.99 341.29 -231.93 308.22 C-230.36 304.15 -230.36 304.15 -229.36 300.15 C-231.34 299.49 -233.32 298.83 -235.36 298.15 C-253.59 289.38 -270.92 279.3 -286.36 266.15 C-286.84 265.75 -286.84 265.75 -289.24 263.71 C-310.4 245.15 -324.49 219.41 -329.11 191.65 C-330.88 159.92 -321.75 132.26 -300.74 108.15 C-298 105.1 -295.2 102.12 -292.36 99.15 C-291.49 98.23 -290.61 97.3 -289.71 96.34 C-269.64 75.59 -243.37 59.29 -217.36 47.15 C-215.77 46.39 -214.18 45.62 -212.54 44.83 C-147.08 14.06 -72.08 0.02 0 0 Z M-263.36 626.15 C-264.58 627.23 -265.8 628.3 -267.05 629.4 C-281.27 645.5 -287.87 665.78 -287.63 687.03 C-286.33 707.06 -277.11 725.71 -262.77 739.68 C-244.72 755.21 -223.92 761.33 -200.36 760.15 C-178.6 757.54 -160.64 747.66 -146.36 731.15 C-133.69 714.31 -127.23 694.26 -129.87 673.12 C-133.35 650.68 -144.03 632.33 -162.3 618.72 C-193.63 597.46 -235.62 600.6 -263.36 626.15 Z M516.64 634.15 C502 652.01 499.73 672.89 500.64 695.15 C504.77 716.47 517.33 735.67 535.28 747.96 C553.81 759.48 575.68 762.85 596.95 758.47 C616.73 753.61 634.19 742.14 645.64 725.15 C657.06 705.48 660.49 684.46 655.81 662.14 C650 642.39 636.67 625.13 618.89 614.87 C583.15 596.03 543.25 604.35 516.64 634.15 Z M-29.36 619.15 C-29.94 619.6 -29.94 619.6 -32.86 621.84 C-43.98 632.36 -46.52 644.32 -46.97 659.06 C-47.05 663.59 -47.09 668.12 -47.11 672.65 C-47.14 674.92 -47.17 677.19 -47.2 679.46 C-47.29 686.02 -47.33 692.59 -47.36 699.15 C-47.38 701.17 -47.4 703.18 -47.42 705.25 C-47.43 707.11 -47.44 708.97 -47.45 710.89 C-47.47 712.52 -47.48 714.15 -47.49 715.83 C-47.1 729.28 -41.73 739.68 -32.13 748.92 C-22.73 756.53 -12.34 757.31 -0.67 757.46 C0.69 757.48 2.05 757.5 3.45 757.52 C8.19 757.59 12.92 757.65 17.66 757.7 C18.51 757.71 18.51 757.71 22.81 757.76 C81.23 758.45 139.65 758.38 198.06 758.39 C215.73 758.4 233.39 758.42 251.06 758.44 C264.89 758.47 278.72 758.48 292.56 758.48 C300.75 758.48 308.95 758.48 317.15 758.5 C324.79 758.52 332.44 758.52 340.08 758.51 C342.87 758.51 345.67 758.52 348.46 758.52 C385.77 758.65 385.77 758.65 401.39 746.15 C410.55 734.87 413.9 723.11 414.05 708.78 C414.07 707.59 414.09 706.39 414.11 705.16 C414.17 701.35 414.21 697.53 414.26 693.72 C414.3 691.19 414.34 688.66 414.38 686.12 C414.48 679.13 414.56 672.14 414.64 665.15 C414.66 663.46 414.67 661.77 414.7 660.02 C414.71 658.62 414.72 657.21 414.73 655.76 C414.73 654.6 414.74 653.45 414.75 652.26 C414.29 640.03 409.15 629.67 400.64 621.15 C388.86 612.32 378.06 610.71 363.67 610.77 C362.07 610.76 360.48 610.76 358.83 610.75 C353.49 610.74 348.14 610.74 342.8 610.75 C338.96 610.74 335.13 610.74 331.3 610.73 C320.88 610.71 310.47 610.71 300.06 610.72 C293.56 610.72 287.05 610.72 280.55 610.71 C279.47 610.71 278.39 610.71 277.28 610.71 C275.08 610.71 272.89 610.71 270.69 610.71 C250.12 610.69 229.54 610.7 208.97 610.71 C190.16 610.72 171.35 610.71 152.53 610.68 C133.21 610.66 113.88 610.65 94.55 610.66 C83.7 610.66 72.86 610.66 62.01 610.64 C51.81 610.62 41.61 610.63 31.41 610.65 C27.67 610.65 23.93 610.65 20.19 610.64 C15.07 610.62 9.97 610.64 4.86 610.65 C3.38 610.64 1.9 610.63 0.37 610.62 C-10.54 610.7 -20.53 612.17 -29.36 619.15 Z " fill="#000000" transform="translate(445.36448669433594,104.84609985351563)"/>
</svg>
